<svg xmlns="http://www.w3.org/2000/svg" width="15.244" height="18.769" viewBox="0 0 15.244 18.769">
  <g id="trash" transform="translate(-1.997 2.001)">
    <path id="Path_1" data-name="Path 1" d="M223.4,154.7c-.552,0-1,.214-1,.479v9.043c0,.264.448.478,1,.478s1-.214,1-.478v-9.043C224.4,154.917,223.951,154.7,223.4,154.7Zm0,0" transform="translate(-211.061 -150.38)"/>
    <path id="Path_2" data-name="Path 2" d="M105.4,154.7c-.552,0-1,.214-1,.479v9.043c0,.264.448.478,1,.478s1-.214,1-.478v-9.043C106.4,154.917,105.951,154.7,105.4,154.7Zm0,0" transform="translate(-98.1 -150.38)"/>
    <path id="Path_3" data-name="Path 3" d="M1.245,5.586v10.83a2.425,2.425,0,0,0,.645,1.673,2.165,2.165,0,0,0,1.571.679h8.316a2.164,2.164,0,0,0,1.571-.679,2.425,2.425,0,0,0,.645-1.673V5.586a1.679,1.679,0,0,0-.431-3.3h-2.25V1.735A1.727,1.727,0,0,0,9.57,0h-3.9A1.727,1.727,0,0,0,3.926,1.735v.549H1.676a1.679,1.679,0,0,0-.431,3.3Zm10.532,12.3H3.46a1.392,1.392,0,0,1-1.336-1.472V5.625H13.113V16.416A1.392,1.392,0,0,1,11.777,17.888ZM4.806,1.735A.847.847,0,0,1,5.667.878h3.9a.847.847,0,0,1,.862.857v.549H4.806ZM1.676,3.163H13.561a.791.791,0,1,1,0,1.582H1.676a.791.791,0,1,1,0-1.582Zm0,0" transform="translate(2 -2)"/>
    <path id="Path_4" data-name="Path 4" d="M164.4,154.7c-.552,0-1,.214-1,.479v9.043c0,.264.448.478,1,.478s1-.214,1-.478v-9.043C165.4,154.917,164.951,154.7,164.4,154.7Zm0,0" transform="translate(-154.58 -150.38)"/>
  </g>
</svg>
